<svg width="43" height="41" viewBox="0 0 43 41" fill="none" xmlns="http://www.w3.org/2000/svg">
<path id="Vector" d="M31.3413 26.4412H29.3634L28.6624 25.7923C30.227 24.0473 31.3705 21.9919 32.0111 19.7732C32.6516 17.5544 32.7734 15.2272 32.3677 12.958C31.191 6.27642 25.3827 0.940799 18.3727 0.123632C15.9083 -0.175678 13.4051 0.0702073 11.0549 0.842472C8.70459 1.61474 6.5695 2.89291 4.81296 4.57919C3.05642 6.26547 1.72499 8.31516 0.920543 10.5714C0.116101 12.8277 -0.140029 15.2307 0.171752 17.5966C1.02297 24.3262 6.5809 29.9022 13.5408 31.0318C15.9046 31.4212 18.3288 31.3043 20.64 30.6894C22.9512 30.0745 25.0923 28.9767 26.9099 27.4747L27.5859 28.1476V30.0464L38.2261 40.2609C39.2526 41.2464 40.93 41.2464 41.9564 40.2609C42.9829 39.2755 42.9829 37.6652 41.9564 36.6798L31.3413 26.4412ZM16.3198 26.4412C10.0859 26.4412 5.05372 21.6103 5.05372 15.6258C5.05372 9.64122 10.0859 4.81032 16.3198 4.81032C22.5537 4.81032 27.5859 9.64122 27.5859 15.6258C27.5859 21.6103 22.5537 26.4412 16.3198 26.4412Z" fill="#111111"/>
</svg>
