<svg width="51" height="52" viewBox="0 0 51 52" fill="none" xmlns="http://www.w3.org/2000/svg">
<g id="Group 33109">
<circle id="Ellipse 260" cx="25.4134" cy="26.0892" r="25.4134" fill="#FF8A3A"/>
<path id="Vector" d="M25.8136 11.1621C21.8317 11.1621 21.331 11.1805 19.7665 11.2501C18.202 11.3235 17.1364 11.5693 16.2028 11.9324C15.2236 12.3008 14.3366 12.8785 13.6038 13.6253C12.8575 14.3584 12.2798 15.2453 11.911 16.2243C11.5478 17.156 11.3002 18.2235 11.2287 19.7825C11.159 21.3506 11.1406 21.8495 11.1406 25.8369C11.1406 29.8206 11.159 30.3195 11.2287 31.884C11.302 33.4467 11.5478 34.5123 11.911 35.4459C12.287 36.4106 12.7877 37.2286 13.6038 38.0448C14.4182 38.861 15.2362 39.3636 16.201 39.7377C17.1364 40.1009 18.2002 40.3485 19.7628 40.42C21.3292 40.4897 21.828 40.508 25.8136 40.508C29.7991 40.508 30.2962 40.4897 31.8625 40.42C33.4234 40.3466 34.4927 40.1009 35.4262 39.7377C36.4048 39.3692 37.2912 38.7914 38.0233 38.0448C38.8395 37.2286 39.3402 36.4106 39.7162 35.4459C40.0775 34.5123 40.3252 33.4467 40.3985 31.884C40.4682 30.3195 40.4866 29.8206 40.4866 25.8351C40.4866 21.8495 40.4682 21.3507 40.3985 19.7843C40.3252 18.2235 40.0775 17.156 39.7162 16.2243C39.3474 15.2453 38.7697 14.3584 38.0233 13.6253C37.2908 12.8783 36.4038 12.3004 35.4244 11.9324C34.489 11.5693 33.4215 11.3217 31.8607 11.2501C30.2943 11.1805 29.7973 11.1621 25.8099 11.1621H25.8136ZM24.4985 13.8069H25.8154C29.7331 13.8069 30.1971 13.8198 31.7433 13.8913C33.1739 13.9555 33.9516 14.1957 34.4688 14.3957C35.1529 14.6616 35.6426 14.9807 36.1562 15.4943C36.6698 16.0079 36.9871 16.4957 37.253 17.1817C37.4548 17.6971 37.6932 18.4747 37.7574 19.9054C37.8289 21.4515 37.8436 21.9156 37.8436 25.8314C37.8436 29.7473 37.8289 30.2131 37.7574 31.7593C37.6932 33.1899 37.4529 33.9657 37.253 34.483C37.0178 35.1201 36.6423 35.6961 36.1544 36.1685C35.6408 36.6821 35.1529 36.9994 34.467 37.2653C33.9534 37.4671 33.1758 37.7055 31.7433 37.7715C30.1971 37.8412 29.7331 37.8577 25.8154 37.8577C21.8977 37.8577 21.4319 37.8412 19.8857 37.7715C18.4551 37.7055 17.6793 37.4671 17.162 37.2653C16.5247 37.0304 15.9481 36.6556 15.4747 36.1685C14.9863 35.6954 14.6103 35.1188 14.3742 34.4811C14.1743 33.9657 13.934 33.1881 13.8698 31.7575C13.8001 30.2113 13.7854 29.7473 13.7854 25.8277C13.7854 21.9101 13.8001 21.4479 13.8698 19.9017C13.9358 18.4711 14.1743 17.6934 14.376 17.1762C14.642 16.4921 14.9611 16.0024 15.4747 15.4888C15.9882 14.9752 16.4761 14.6579 17.162 14.392C17.6793 14.1902 18.4551 13.9518 19.8857 13.8858C21.2393 13.8234 21.7639 13.8051 24.4985 13.8032V13.8069ZM33.6471 16.2426C33.4159 16.2426 33.1869 16.2882 32.9733 16.3767C32.7597 16.4651 32.5656 16.5948 32.4021 16.7583C32.2386 16.9218 32.1089 17.1159 32.0204 17.3296C31.9319 17.5432 31.8864 17.7722 31.8864 18.0034C31.8864 18.2346 31.9319 18.4636 32.0204 18.6772C32.1089 18.8908 32.2386 19.0849 32.4021 19.2484C32.5656 19.4119 32.7597 19.5416 32.9733 19.6301C33.1869 19.7186 33.4159 19.7641 33.6471 19.7641C34.1141 19.7641 34.562 19.5786 34.8922 19.2484C35.2224 18.9182 35.4079 18.4704 35.4079 18.0034C35.4079 17.5364 35.2224 17.0885 34.8922 16.7583C34.562 16.4281 34.1141 16.2426 33.6471 16.2426ZM25.8154 18.3005C24.816 18.2849 23.8234 18.4683 22.8955 18.84C21.9676 19.2117 21.1229 19.7643 20.4105 20.4655C19.6982 21.1668 19.1326 22.0028 18.7464 22.9248C18.3603 23.8468 18.1615 24.8364 18.1615 25.836C18.1615 26.8356 18.3603 27.8252 18.7464 28.7472C19.1326 29.6692 19.6982 30.5052 20.4105 31.2064C21.1229 31.9077 21.9676 32.4603 22.8955 32.832C23.8234 33.2037 24.816 33.3871 25.8154 33.3715C27.7936 33.3406 29.6803 32.5331 31.0683 31.1233C32.4563 29.7135 33.2343 27.8144 33.2343 25.836C33.2343 23.8576 32.4563 21.9585 31.0683 20.5487C29.6803 19.1389 27.7936 18.3314 25.8154 18.3005ZM25.8154 20.9435C26.4578 20.9435 27.0939 21.07 27.6874 21.3158C28.2808 21.5617 28.8201 21.922 29.2743 22.3762C29.7285 22.8304 30.0888 23.3697 30.3347 23.9631C30.5805 24.5566 30.707 25.1927 30.707 25.8351C30.707 26.4774 30.5805 27.1135 30.3347 27.707C30.0888 28.3005 29.7285 28.8397 29.2743 29.294C28.8201 29.7482 28.2808 30.1085 27.6874 30.3543C27.0939 30.6001 26.4578 30.7267 25.8154 30.7267C24.5181 30.7267 23.2739 30.2113 22.3565 29.294C21.4392 28.3766 20.9238 27.1324 20.9238 25.8351C20.9238 24.5377 21.4392 23.2935 22.3565 22.3762C23.2739 21.4588 24.5181 20.9435 25.8154 20.9435Z" fill="white"/>
</g>
</svg>
