<svg width="41" height="40" viewBox="0 0 41 40" fill="none" xmlns="http://www.w3.org/2000/svg">
<g id="Group 33483">
<g id="Group 167">
<rect id="Rectangle 41" x="0.32135" width="40" height="40" rx="20" fill="#FF8A3A"/>
</g>
<path id="Vector" d="M30.5181 8H10.2613C9.19027 8 8.32135 8.86892 8.32135 9.93999V30.1967C8.32135 31.2678 9.19027 32.1367 10.2613 32.1367H30.5181C31.5891 32.1367 32.4581 31.2678 32.4581 30.1967V9.93999C32.4581 8.86892 31.5891 8 30.5181 8ZM30.5181 30.2058C17.0076 30.2028 10.2523 30.1997 10.2523 30.1967C10.2553 16.6862 10.2583 9.93094 10.2613 9.93094C23.7719 9.93395 30.5271 9.93697 30.5271 9.93999C30.5241 23.4505 30.5211 30.2058 30.5181 30.2058ZM11.8996 17.0483H15.4809V28.5675H11.8996V17.0483ZM13.6918 15.4733C14.8352 15.4733 15.7675 14.5441 15.7675 13.3976C15.7675 13.125 15.7138 12.8551 15.6095 12.6032C15.5052 12.3514 15.3523 12.1225 15.1596 11.9298C14.9668 11.737 14.738 11.5841 14.4861 11.4798C14.2343 11.3755 13.9644 11.3218 13.6918 11.3218C13.4192 11.3218 13.1493 11.3755 12.8974 11.4798C12.6456 11.5841 12.4167 11.737 12.224 11.9298C12.0312 12.1225 11.8783 12.3514 11.774 12.6032C11.6697 12.8551 11.616 13.125 11.616 13.3976C11.613 14.5441 12.5423 15.4733 13.6918 15.4733ZM21.3039 22.8682C21.3039 21.3657 21.5905 19.9115 23.4521 19.9115C25.2864 19.9115 25.3136 21.6282 25.3136 22.9648V28.5675H28.8919V22.2497C28.8919 19.1481 28.2221 16.7616 24.5986 16.7616C22.8577 16.7616 21.6901 17.718 21.2104 18.6232H21.1621V17.0483H17.7256V28.5675H21.3039V22.8682Z" fill="white"/>
</g>
</svg>
