<svg width="150" height="150" viewBox="0 0 150 150" fill="none" xmlns="http://www.w3.org/2000/svg">
<g id="mingcute:safety-certificate-line" clip-path="url(#clip0_1618_1536)">
<g id="Group">
<path id="Vector" d="M70.6125 13.7204C73.0789 12.7976 75.7737 12.6773 78.3125 13.3766L79.3875 13.7204L123.137 30.1266C125.356 30.9584 127.292 32.4035 128.721 34.2935C130.149 36.1835 131.011 38.4405 131.206 40.8016L131.25 41.8329V75.3516C131.25 85.4792 128.515 95.419 123.335 104.122C118.155 112.824 110.721 119.967 101.819 124.795L100.156 125.664L79.1937 136.145C78.0395 136.722 76.7788 137.054 75.4904 137.12C74.2021 137.187 72.9138 136.987 71.7062 136.533L70.8063 136.145L49.8438 125.664C40.7851 121.135 33.1173 114.243 27.65 105.718C22.1827 97.1924 19.1186 87.349 18.7813 77.2266L18.75 75.3516V41.8329C18.75 39.4649 19.4227 37.1457 20.6896 35.1452C21.9565 33.1447 23.7656 31.5452 25.9062 30.5329L26.8625 30.1266L70.6125 13.7204ZM75 25.4266L31.25 41.8329V75.3516C31.2502 83.1954 33.3591 90.8949 37.356 97.644C41.3529 104.393 47.0907 109.943 53.9688 113.714L55.4375 114.483L75 124.264L94.5625 114.483C101.58 110.975 107.524 105.645 111.774 99.0507C116.024 92.4566 118.423 84.841 118.719 77.0016L118.75 75.3516V41.8329L75 25.4266ZM96.4562 53.9329C97.581 52.8119 99.0902 52.1611 100.677 52.1127C102.265 52.0642 103.811 52.6217 105.002 53.6719C106.193 54.7221 106.939 56.1863 107.09 57.7671C107.241 59.3478 106.784 60.9267 105.812 62.1829L105.294 62.7704L72.5812 95.4891C71.3897 96.6805 69.802 97.3928 68.1198 97.4908C66.4376 97.5887 64.778 97.0654 63.4562 96.0204L62.8563 95.4891L47.8312 80.4641C46.6984 79.342 46.0373 77.8293 45.9832 76.2357C45.9292 74.6421 46.4862 73.0881 47.5404 71.8917C48.5946 70.6954 50.0662 69.9472 51.6539 69.8003C53.2416 69.6534 54.8255 70.119 56.0812 71.1016L56.6688 71.6203L67.7188 82.6704L96.4562 53.9329Z" fill="#FF8A3A"/>
</g>
</g>
<defs>
<clipPath id="clip0_1618_1536">
<rect width="150" height="150" fill="white"/>
</clipPath>
</defs>
</svg>
