<svg width="150" height="150" viewBox="0 0 150 150" fill="none" xmlns="http://www.w3.org/2000/svg">
<g id="mdi:super-chat-for-good">
<path id="Vector" d="M79.686 24.627C85.936 20.127 93.186 17.877 101.374 17.877C105.874 17.877 110.811 19.0645 116.186 21.5645C121.561 24.002 125.811 26.877 128.936 30.1895C135.374 38.1894 138.061 47.5019 137.124 58.1269C136.124 68.7519 132.624 77.0644 126.561 82.9395L79.1235 130.377C77.936 131.564 76.436 132.127 74.686 132.127C72.936 132.127 71.4985 131.564 70.311 130.377C69.7338 129.808 69.2804 129.125 68.9793 128.372C68.6781 127.619 68.5357 126.812 68.561 126.002C68.561 124.252 69.1235 122.752 70.311 121.564L98.9985 92.8769C100.561 91.5019 100.561 90.0644 98.9985 88.5019C97.436 86.9394 95.9985 86.9394 94.6235 88.5019L65.936 117.189C65.3576 117.772 64.6645 118.228 63.9007 118.53C63.137 118.831 62.319 118.97 61.4985 118.939C59.7485 118.939 58.311 118.377 57.1235 117.189C56.5463 116.62 56.0929 115.937 55.7918 115.185C55.4906 114.432 55.3482 113.625 55.3735 112.814C55.3735 111.064 55.936 109.564 57.1235 108.377L85.811 79.6894C87.4985 78.1269 87.4985 76.5644 85.811 75.0019C84.3735 73.4394 82.9985 73.4394 81.436 75.0019L52.7485 104.002C52.1635 104.576 51.4694 105.026 50.7071 105.327C49.9449 105.627 49.1301 105.772 48.311 105.752C46.561 105.752 45.061 105.189 43.7485 104.002C42.4985 102.814 41.8735 101.377 41.8735 99.6269C41.8735 97.8769 42.561 96.3144 43.936 94.9394L72.686 66.1894C74.2485 64.6269 74.2485 63.1894 72.686 61.8144C71.1235 60.4394 69.6235 60.4394 68.2485 61.8144L39.2485 90.6269C37.8735 91.8769 36.436 92.5644 34.8735 92.5644C33.1235 92.5644 31.6235 91.9394 30.4985 90.6269C29.311 89.3769 28.686 87.8769 28.686 86.1269C28.686 84.3769 29.311 82.9394 30.4985 81.7519C49.6235 62.5019 61.436 50.8769 65.936 46.5644L88.186 68.5644C90.6235 70.8769 93.436 72.0644 96.8735 72.0644C101.249 72.0644 104.686 70.3144 107.249 66.8144C108.999 64.2519 109.624 61.4394 109.124 58.3144C108.624 55.1894 107.311 52.5644 105.186 50.3769L79.686 24.627ZM92.561 64.1894L65.936 37.502L21.686 81.7519C16.436 76.4394 13.436 68.3144 12.7485 57.2519C12.061 46.2519 15.061 36.6895 21.686 28.6895C29.1235 21.3145 37.9985 17.5645 48.311 17.5645C58.686 17.5645 67.4985 21.3145 74.686 28.6895L101.374 55.3769C102.561 56.5644 103.124 58.0019 103.124 59.7519C103.124 61.5019 102.561 63.0019 101.374 64.1894C100.186 65.3144 98.7485 65.9394 96.8735 65.9394C95.186 65.9394 93.7485 65.3144 92.561 64.1894Z" fill="#FF8A3A"/>
</g>
</svg>
