<svg width="150" height="150" viewBox="0 0 150 150" fill="none" xmlns="http://www.w3.org/2000/svg">
<g id="carbon:dns-services">
<path id="Vector" d="M93.75 93.75H140.625V103.125H93.75V93.75ZM93.75 112.5H121.875V121.875H93.75V112.5Z" fill="#FF8A3A"/>
<path id="Vector_2" d="M140.624 79.6849V74.9974C140.612 61.384 136.362 48.1121 128.464 37.0235C120.567 25.9349 109.414 17.5796 96.5527 13.117C83.6915 8.65436 69.7602 8.30582 56.6919 12.1197C43.6237 15.9336 32.0667 23.7208 23.6247 34.4006C15.1828 45.0804 10.2746 58.1232 9.58122 71.7189C8.88786 85.3147 12.4438 98.7891 19.7554 110.272C27.0671 121.755 37.772 130.678 50.3844 135.802C62.9969 140.925 76.8914 141.996 90.1398 138.865L87.9836 129.743C83.7283 130.745 79.371 131.25 74.9992 131.247C74.1086 131.247 73.2414 131.158 72.3602 131.121C62.1888 115.873 56.6367 98.0121 56.3711 79.6849H140.624ZM131.057 70.3099H103.007C102.485 53.0383 98.0388 36.1122 90.0039 20.8146C101.078 23.8932 110.947 30.2845 118.285 39.1313C125.624 47.9781 130.077 58.8573 131.057 70.3099ZM77.6383 18.8739C87.8096 34.1219 93.3617 51.9826 93.6273 70.3099H56.3711C56.6367 51.9826 62.1888 34.1219 72.3602 18.8739C73.2414 18.8411 74.1086 18.7474 74.9992 18.7474C75.8898 18.7474 76.757 18.8364 77.6383 18.8739ZM59.9945 20.8146C51.9597 36.1122 47.5129 53.0383 46.9914 70.3099H18.9461C19.9251 58.8585 24.3818 47.9801 31.7187 39.1335C39.0556 30.2869 48.9218 23.8949 59.9945 20.8146ZM59.9945 129.18C48.9218 126.1 39.0556 119.708 31.7187 110.861C24.3818 102.015 19.9251 91.1363 18.9461 79.6849H46.9914C47.5129 96.9564 51.9597 113.883 59.9945 129.18Z" fill="#FF8A3A"/>
</g>
</svg>
