<svg width="150" height="150" viewBox="0 0 150 150" fill="none" xmlns="http://www.w3.org/2000/svg">
<g id="eos-icons:trusted-organization">
<path id="Vector" d="M118.75 56.2544C118.753 48.7225 116.811 41.3175 113.113 34.7562C109.414 28.1948 104.085 22.6993 97.6399 18.8017C91.1949 14.9041 83.8529 12.7364 76.3245 12.5083C68.7961 12.2803 61.3363 13.9997 54.6673 17.5002C47.9982 21.0006 42.3458 26.1634 38.2572 32.489C34.1686 38.8145 31.7823 46.0884 31.3292 53.6066C30.8762 61.1249 32.3717 68.6327 35.6712 75.4035C38.9706 82.1742 43.9621 87.9785 50.1625 92.2544L31.25 125.004L45.35 125.586L52.9 137.504L74.5625 99.9794C74.7125 99.9794 74.85 100.004 75 100.004C75.15 100.004 75.2875 99.9857 75.4375 99.9794L97.1 137.504L104.8 125.842L118.75 125.004L99.8375 92.2544C105.673 88.2369 110.443 82.8606 113.738 76.5891C117.033 70.3175 118.753 63.3388 118.75 56.2544ZM43.75 56.2544C43.75 50.0737 45.5828 44.0319 49.0166 38.8928C52.4504 33.7538 57.331 29.7484 63.0411 27.3832C68.7513 25.0179 75.0347 24.3991 81.0966 25.6049C87.1585 26.8107 92.7267 29.7869 97.0971 34.1573C101.467 38.5277 104.444 44.0959 105.65 50.1578C106.855 56.2197 106.236 62.5031 103.871 68.2133C101.506 73.9235 97.5006 78.804 92.3616 82.2378C87.2225 85.6716 81.1807 87.5044 75 87.5044C66.712 87.5044 58.7634 84.212 52.9029 78.3515C47.0424 72.491 43.75 64.5424 43.75 56.2544Z" fill="#FF8A3A"/>
<path id="Vector_2" d="M75 75C85.3553 75 93.75 66.6053 93.75 56.25C93.75 45.8947 85.3553 37.5 75 37.5C64.6447 37.5 56.25 45.8947 56.25 56.25C56.25 66.6053 64.6447 75 75 75Z" fill="#FF8A3A"/>
</g>
</svg>
