<svg width="150" height="150" viewBox="0 0 150 150" fill="none" xmlns="http://www.w3.org/2000/svg">
<g id="file-icons:service-fabric" clip-path="url(#clip0_1618_1529)">
<path id="Vector" d="M148.555 55.2241C143.192 40.5581 125.673 35.7101 113.593 43.7374L97.4103 30.3019C101.784 16.0996 91.5659 0.477053 75.6791 0.0162128C59.318 -0.458397 48.0258 15.4694 52.5856 30.2828L36.3911 43.7274C23.9423 35.4549 5.97716 40.946 1.12735 56.1505C-3.35272 70.1963 6.09259 83.9629 19.3359 86.3456L25.6017 108.827C14.4132 118.46 14.6848 136.989 27.7896 145.892C40.7722 154.712 57.9281 148.362 62.9739 134.699H86.9868C92.2154 149.017 110.432 155.01 123.259 145.108C135.614 135.571 134.999 117.442 123.768 108.341L130.237 86.4191C144.122 84.2064 153.795 69.5526 148.555 55.2238M86.0145 121.811H63.9627C61.4994 109.703 49.631 101.495 37.4569 103.362L32.3329 84.9748C44.7762 79.9683 50.2535 65.3263 44.7905 53.5059L59.6376 41.1801C68.2986 48.7141 81.6029 48.8072 90.346 41.19L105.206 53.5272C99.7573 65.3148 105.228 79.7058 117.271 84.8154L111.829 103.259C99.779 101.755 88.4335 110.054 86.0145 121.811Z" fill="#FF8A3A"/>
</g>
<defs>
<clipPath id="clip0_1618_1529">
<rect width="150" height="150" fill="white"/>
</clipPath>
</defs>
</svg>
