<svg width="150" height="150" viewBox="0 0 150 150" fill="none" xmlns="http://www.w3.org/2000/svg">
<g id="eos-icons:service-outlined">
<path id="Vector" d="M56.25 25L43.75 37.5L31.25 50L43.75 62.5L56.25 75L60.625 70.625L65 66.25L56.875 58.125L48.75 50L56.875 41.875L65 33.75L60.625 29.375L56.25 25ZM93.75 25L89.375 29.375L85 33.75L93.125 41.875L101.25 50L93.125 58.125L85 66.25L89.375 70.625L93.75 75L106.25 62.5L118.75 50L106.25 37.5L93.75 25ZM131.106 119.312L128.681 109.737C128.526 109.127 128.249 108.554 127.867 108.054C127.484 107.553 127.004 107.135 126.456 106.825C125.905 106.51 125.297 106.308 124.667 106.231C124.037 106.153 123.398 106.202 122.787 106.375L94.3375 114.4L75 106.25L99.4687 99.9812C101.139 98.491 102.349 96.5546 102.956 94.4L101.037 87.5L50 93.75H18.75V131.25H50L77.8437 137.275C79.3574 137.413 80.8819 137.377 82.3875 137.169L127.762 124.956C128.953 124.638 129.971 123.866 130.6 122.806C130.91 122.285 131.115 121.707 131.202 121.107C131.289 120.506 131.256 119.901 131.106 119.312ZM37.5 125H25V100H37.5V125ZM80.7625 131.137C80.4808 131.211 80.1911 131.249 79.9 131.25C79.6584 131.251 79.4174 131.226 79.1812 131.175L50 124.769V100.125L95.8062 94.45L62.5 106.25L92.0062 120.2L93.9875 120.994L96.0375 120.412L123.012 112.806L124.662 119.319L80.7625 131.137Z" fill="#FF8A3A"/>
</g>
</svg>
