<svg width="28" height="29" viewBox="0 0 28 29" fill="none" xmlns="http://www.w3.org/2000/svg">
<g id="Group 33490">
<g id="Group 167">
<rect id="Rectangle 41" y="0.515625" width="27.8197" height="27.8197" rx="13.9098" fill="#FF8A3A"/>
</g>
<path id="Vector" d="M19.8748 7.375H8.12525C7.504 7.375 7 7.879 7 8.50025V20.2498C7 20.871 7.504 21.375 8.12525 21.375H19.8748C20.496 21.375 21 20.871 21 20.2498V8.50025C21 7.879 20.496 7.375 19.8748 7.375ZM19.8748 20.255C12.0383 20.2533 8.12 20.2515 8.12 20.2498C8.12175 12.4133 8.1235 8.495 8.12525 8.495C15.9618 8.49675 19.88 8.4985 19.88 8.50025C19.8783 16.3368 19.8765 20.255 19.8748 20.255ZM9.0755 12.6233H11.1528V19.3048H9.0755V12.6233ZM10.115 11.7098C10.7782 11.7098 11.319 11.1707 11.319 10.5057C11.319 10.3476 11.2879 10.1911 11.2274 10.045C11.1668 9.89892 11.0782 9.7662 10.9664 9.65439C10.8546 9.54259 10.7218 9.45391 10.5758 9.3934C10.4297 9.33289 10.2731 9.30175 10.115 9.30175C9.95689 9.30175 9.80033 9.33289 9.65425 9.3934C9.50817 9.45391 9.37545 9.54259 9.26364 9.65439C9.15184 9.7662 9.06316 9.89892 9.00265 10.045C8.94214 10.1911 8.911 10.3476 8.911 10.5057C8.90925 11.1707 9.44825 11.7098 10.115 11.7098ZM14.5302 15.999C14.5302 15.1275 14.6965 14.284 15.7762 14.284C16.8403 14.284 16.856 15.2797 16.856 16.055V19.3048H18.9315V15.6403C18.9315 13.8412 18.543 12.457 16.4412 12.457C15.4315 12.457 14.7543 13.0118 14.476 13.5368H14.448V12.6233H12.4548V19.3048H14.5302V15.999Z" fill="white"/>
</g>
</svg>
